# xmcd
#
# Track frame offsets:
#	150
#	14650
#	26537
#	39875
#	58430
#	73657
#	90637
#	102975
#	118562
#	133035
#	150817
#	165310
#	177397
#	192072
#
# Disc length: 2764
#
# Revision: 1
# Processed by: cddbd v1.5.1PL0 Copyright (c) Steve Scherf et al.
# Submitted via: VisiTrax 2.9.5.180 - For more info visit www.synapsa.com
# Normalized: r0:DSETVAR1
#
DISCID=b00aca0e
DTITLE=Various Artist - Mr. Music Country 10-02
DYEAR=2002
DGENRE=
TTITLE0=Chip Taylor - Carrie Rodriques - Sweet tequila blues
TTITLE1=Freddy Lovvorn - I'll take the fall
TTITLE2=Libbi Bosworth - Palm of your hand
TTITLE3=South Mountain - Black diamond strings
TTITLE4=Derailers - Under your spell again
TTITLE5=Jimmy Dale Gilmore - Blue shadows
TTITLE6=David Ball - Made in Japan
TTITLE7=James Intveld - Somewhere down the road
TTITLE8=Hatchet - Steel mills of Birmingham
TTITLE9=Kelsy Jones - Blues stay away from me
TTITLE10=Mark Middler - Box of old flames
TTITLE11=Jeff Hughes - Storm of love
TTITLE12=Fae Pierce - I flew over our house last night
TTITLE13=Joe Pat Hennen - Better than icecream
EXTD=
EXTT0=
EXTT1=
EXTT2=
EXTT3=
EXTT4=
EXTT5=
EXTT6=
EXTT7=
EXTT8=
EXTT9=
EXTT10=
EXTT11=
EXTT12=
EXTT13=
PLAYORDER=
